<svg width="130" height="58" viewBox="0 0 66 24" fill="none" xmlns="http://www.w3.org/2000/svg">
<g clip-path="url(#clip0_1_259)">
<path d="M21.4304 8.43692C21.7592 8.74851 22.1138 9.03174 22.4905 9.28358C22.5168 9.23954 22.5368 9.19204 22.5499 9.14247C22.5668 9.05498 22.5795 8.97878 22.5894 8.90681C22.3338 8.72805 22.0893 8.53389 21.8572 8.32544C21.7286 8.36636 21.5788 8.40164 21.4304 8.43692Z" fill="#BDBCBC"/>
<path d="M9.4536 10.047C9.4184 10.0468 9.38394 10.0572 9.35465 10.0767C8.94842 10.3348 8.60622 10.6818 8.35388 11.0912C8.42605 11.0982 8.49747 11.1114 8.56732 11.1307C8.60848 11.1752 8.64193 11.2263 8.66627 11.2817C8.88897 10.9193 9.19161 10.6123 9.55113 10.3843C9.57176 10.3717 9.5897 10.3552 9.60393 10.3357C9.61815 10.3162 9.62838 10.294 9.63402 10.2706C9.63967 10.2471 9.64062 10.2228 9.63683 10.1989C9.63304 10.1751 9.62457 10.1522 9.61191 10.1317C9.59489 10.1053 9.57142 10.0837 9.54373 10.0689C9.51603 10.0541 9.48502 10.0466 9.4536 10.047Z" fill="#BDBCBC"/>
<path d="M3.32458 1.30951C3.4306 1.23895 3.5352 1.1684 3.64404 1.09643C4.08297 0.818195 4.53745 0.565196 5.00526 0.338668C4.88197 0.299689 4.76416 0.245156 4.65471 0.176392C4.33666 0.317502 4.42289 0.441678 4.18824 0.695677C3.89423 1.01741 3.59033 0.959552 3.32458 1.30951Z" fill="#BDBCBC"/>
<path d="M7.40682 0.465621C7.42372 0.467675 7.4408 0.467675 7.4577 0.465621C8.07054 0.284548 8.69613 0.149644 9.3292 0.0620466C9.3292 0.0521689 9.31931 0.0408801 9.31365 0.0324135C8.60689 -0.0480192 8.63375 0.0479356 7.80967 0.0239469L7.68528 0.0168914L7.35028 0.107202C7.30366 0.120946 7.2644 0.15257 7.24108 0.19515C7.21777 0.23773 7.2123 0.287797 7.22589 0.334389C7.23759 0.372963 7.2616 0.406662 7.29426 0.430353C7.32693 0.454044 7.36645 0.466429 7.40682 0.465621Z" fill="#BDBCBC"/>
<path d="M16.5947 3.03242C15.2947 2.29935 13.8612 1.83258 12.3782 1.65942C12.2637 1.74973 12.152 1.87956 12.0375 1.9868C13.7081 2.1305 15.322 2.66205 16.7502 3.53901C16.6639 3.38266 16.611 3.21019 16.5947 3.03242Z" fill="#BDBCBC"/>
<path d="M9.55112 17.183C9.49937 17.3257 9.46196 17.4732 9.43945 17.6232C9.60342 17.8236 9.77304 18.0254 9.95397 18.2343L9.96387 18.2441C9.99769 18.2766 10.0428 18.2948 10.0897 18.2949C10.1384 18.2947 10.185 18.2754 10.2197 18.2413C10.2521 18.2072 10.2702 18.162 10.2702 18.115C10.2702 18.068 10.2521 18.0228 10.2197 17.9887C9.98649 17.7136 9.76174 17.444 9.55112 17.183Z" fill="#BDBCBC"/>
<path d="M4.71832 2.78556C6.07703 1.92328 7.59805 1.34751 9.18786 1.09365C9.18786 1.07249 9.20059 1.0485 9.23451 1.0231C9.34547 0.942926 9.42017 0.822198 9.4423 0.687256C7.41371 0.957535 5.48576 1.73269 3.83578 2.94143C2.1858 4.15017 0.866765 5.75367 -4.90691e-06 7.60447C-0.0104021 7.77705 0.00532328 7.95021 0.0466412 8.11811C0.0595632 8.1687 0.0815959 8.21651 0.111663 8.25922C0.152655 8.16044 0.19082 8.06167 0.234639 7.9643C1.18045 5.83159 2.74143 4.02863 4.71832 2.78556Z" fill="#BDBCBC"/>
<path d="M12.4828 21.6364C12.3782 21.5475 12.2722 21.4543 12.1662 21.3626C11.6201 20.8838 11.0085 20.4852 10.3498 20.1787C10.421 20.3381 10.4783 20.5033 10.5208 20.6726C11.0254 20.9393 11.4965 21.2647 11.9245 21.642C12.0319 21.7352 12.1393 21.8297 12.2453 21.9242C12.8805 22.467 13.5302 22.9718 14.1946 23.4384C14.3091 23.372 14.4207 23.2972 14.5296 23.2281C13.8211 22.732 13.138 22.2008 12.4828 21.6364Z" fill="#BDBCBC"/>
<path d="M17.1403 8.91246C16.3925 7.73734 15.3187 6.80442 14.0496 6.22714C12.7805 5.64985 11.3708 5.45305 9.99177 5.66067C8.61274 5.8683 7.32384 6.47139 6.28175 7.39664C5.23966 8.32189 4.48928 9.52944 4.12183 10.8725C4.25187 10.857 4.38191 10.8499 4.51196 10.8443C4.88112 9.58666 5.60556 8.46195 6.59853 7.60478C7.59151 6.74762 8.81092 6.19434 10.1108 6.0112C11.4106 5.82806 12.7358 6.02282 13.9276 6.57215C15.1194 7.12149 16.1274 8.00213 16.8308 9.10861C17.6894 10.4629 18.8142 11.6293 20.137 12.5376C20.2218 12.4487 20.308 12.3598 20.3928 12.2695C19.0896 11.3849 17.9825 10.2422 17.1403 8.91246Z" fill="#BDBCBC"/>
<path d="M10.0883 11.2295C10.2903 11.1015 10.5157 11.0146 10.7515 10.9737C10.9872 10.9328 11.2287 10.9388 11.4622 10.9912C11.6957 11.0436 11.9165 11.1415 12.112 11.2793C12.3075 11.417 12.4738 11.5919 12.6015 11.794C13.5038 13.2092 14.5899 14.4988 15.8314 15.6293C15.865 15.6601 15.9088 15.6772 15.9544 15.6773C15.9808 15.6781 16.0071 15.6732 16.0315 15.663C16.0559 15.6528 16.0778 15.6374 16.0957 15.6181C16.1279 15.582 16.1451 15.5351 16.1438 15.4868C16.1413 15.4384 16.12 15.3928 16.0844 15.3598C14.864 14.2505 13.7968 12.984 12.9111 11.5936C12.7589 11.3479 12.5594 11.1349 12.3242 10.9667C12.0889 10.7986 11.8226 10.6787 11.5406 10.6141C11.2586 10.5494 10.9665 10.5413 10.6814 10.5902C10.3962 10.639 10.1236 10.7439 9.87933 10.8987C9.63505 11.0535 9.42398 11.2551 9.25833 11.4919C9.09269 11.7287 8.97577 11.996 8.91435 12.2783C8.85292 12.5605 8.84822 12.8521 8.90051 13.1362C8.9528 13.4203 9.06104 13.6912 9.21896 13.9332C9.27974 14.0306 9.34477 14.1251 9.40696 14.2154C9.65215 14.4593 9.85007 14.7464 9.99074 15.0621C11.7141 17.4385 13.8776 19.4632 16.3643 21.0268C16.4381 20.9267 16.5194 20.8324 16.6074 20.7446C13.755 18.9637 11.3362 16.5702 9.52711 13.7385C9.26932 13.3308 9.18407 12.8376 9.29007 12.3673C9.39607 11.8969 9.68466 11.4877 10.0925 11.2295H10.0883Z" fill="#BDBCBC"/>
<path d="M13.1344 20.8843C13.0341 20.7982 12.9309 20.7093 12.8291 20.619C11.9122 19.8114 10.8339 19.2073 9.66565 18.8467C9.73491 19.0019 9.81548 19.1557 9.89747 19.3095C10.8852 19.6624 11.7967 20.1997 12.5832 20.8928C12.6863 20.9845 12.7909 21.0748 12.8927 21.1609C13.5815 21.7515 14.302 22.304 15.0512 22.8161C15.1459 22.7314 15.2363 22.6468 15.324 22.5593C14.5638 22.0416 13.8329 21.4824 13.1344 20.8843Z" fill="#BDBCBC"/>
<path d="M13.7564 11.0574C13.3775 10.4613 12.8108 10.0078 12.1455 9.76842C11.4801 9.52905 10.7539 9.51738 10.0812 9.73524C10.0584 9.74255 10.0374 9.75429 10.0192 9.76979C10.001 9.78529 9.98602 9.80424 9.97521 9.82555C9.9609 9.85333 9.95399 9.88431 9.95514 9.91553C9.9563 9.94675 9.96548 9.97714 9.98181 10.0038C9.99814 10.0304 10.0211 10.0524 10.0484 10.0677C10.0757 10.0829 10.1065 10.0909 10.1378 10.0908C10.1569 10.0909 10.176 10.088 10.1943 10.0824C10.7897 9.89109 11.4317 9.90229 12.02 10.1142C12.6083 10.3262 13.1096 10.7269 13.4454 11.2536C14.6423 13.1436 16.2004 14.7796 18.0308 16.0683C18.3984 16.3279 18.7772 16.5678 19.1617 16.7964C19.1617 16.6553 19.1617 16.5142 19.1617 16.3632C16.9776 15.0299 15.1286 13.2149 13.7564 11.0574Z" fill="#BDBCBC"/>
<path d="M11.8311 22.397L11.5032 22.1148C11.2221 21.8675 10.9204 21.6447 10.6014 21.4487C10.6062 21.6413 10.6608 21.8294 10.7597 21.9948C10.8643 22.0696 10.9647 22.1515 11.065 22.2319C11.1282 22.2611 11.186 22.3007 11.236 22.349C11.2491 22.365 11.2609 22.382 11.2714 22.3998C11.3703 22.4859 11.4735 22.5762 11.5894 22.682C12.0813 23.1054 12.5789 23.5019 13.0934 23.8801C13.1611 23.8762 13.2281 23.8639 13.2927 23.8434C13.3761 23.8166 13.4581 23.7855 13.5401 23.7545C12.9624 23.3264 12.3928 22.8739 11.8311 22.397Z" fill="#BDBCBC"/>
<path d="M1.29193 9.84667C1.4098 9.88373 1.52312 9.93391 1.62976 9.99625C2.10869 8.36494 3.0038 6.88576 4.22743 5.70356C5.45107 4.52136 6.96128 3.67667 8.61018 3.25221C10.2591 2.82774 11.9902 2.83806 13.6339 3.28213C15.2776 3.72621 16.7776 4.58883 17.987 5.78553C17.9132 5.52922 17.8216 5.27838 17.7128 5.03482C16.4227 3.92842 14.876 3.16161 13.2134 2.80416C11.5508 2.4467 9.82501 2.50995 8.19312 2.98815C6.56123 3.46635 5.07502 4.34432 3.86971 5.54217C2.66441 6.74002 1.77827 8.21974 1.29193 9.84667Z" fill="#BDBCBC"/>
<path d="M14.6031 10.5211C14.2075 9.89692 13.6533 9.38851 12.997 9.04764C12.3406 8.70677 11.6055 8.54563 10.8664 8.58062C10.1274 8.61561 9.41081 8.84548 8.7897 9.24683C8.16859 9.64817 7.6651 10.2067 7.33051 10.8654C7.41974 10.953 7.53462 11.0098 7.65844 11.0277C7.96398 10.4265 8.42386 9.91693 8.99113 9.5511C9.55841 9.18528 10.2128 8.97628 10.8874 8.94543C11.562 8.91458 12.2328 9.063 12.8312 9.37552C13.4296 9.68804 13.9342 10.1535 14.2935 10.7243C15.4133 12.4963 16.8779 14.026 18.6005 15.2229C18.7503 15.3273 18.903 15.4247 19.0556 15.5235C19.0132 15.3485 18.9609 15.1749 18.9143 15C17.1855 13.8171 15.7181 12.2927 14.6031 10.5211Z" fill="#BDBCBC"/>
<path d="M9.98225 16.1134C9.93984 16.2545 9.88613 16.3787 9.82959 16.5113C10.7801 17.72 11.8297 18.8476 12.9676 19.8825C13.8412 20.6794 14.7713 21.4123 15.7508 22.0753C15.8271 21.9779 15.8922 21.8792 15.9614 21.7818C13.2644 19.9714 11.253 17.7559 9.98225 16.1134Z" fill="#BDBCBC"/>
<path d="M16.6371 15.8551C16.6045 15.827 16.5629 15.8115 16.5198 15.8114C16.4823 15.8118 16.4459 15.8235 16.4153 15.8451C16.3847 15.8668 16.3615 15.8972 16.3488 15.9323C16.336 15.9675 16.3343 16.0057 16.3439 16.0418C16.3535 16.078 16.3739 16.1103 16.4024 16.1345C17.1848 16.7923 18.0196 17.385 18.8987 17.9069C18.9251 17.8784 18.9471 17.846 18.9637 17.8109C18.9994 17.7335 19.0287 17.6532 19.0514 17.571C18.2019 17.0646 17.3945 16.4907 16.6371 15.8551Z" fill="#BDBCBC"/>
<path d="M11.2191 12.6661C11.2027 12.6401 11.18 12.6186 11.153 12.6038C11.1261 12.589 11.0958 12.5813 11.065 12.5814C11.03 12.5814 10.9957 12.5912 10.9661 12.6096C10.9457 12.6225 10.9282 12.6392 10.9143 12.6588C10.9005 12.6784 10.8907 12.7005 10.8855 12.7239C10.88 12.7479 10.8793 12.7727 10.8834 12.7969C10.8875 12.8211 10.8964 12.8443 10.9095 12.8651C12.5003 15.3655 14.606 17.4993 17.0866 19.1247C17.1934 19.0395 17.3113 18.9693 17.4371 18.9159C14.9352 17.3071 12.8135 15.1746 11.2191 12.6661Z" fill="#BDBCBC"/>
<path d="M12.0643 12.1354L12.0347 12.0917C12.0304 12.0848 12.0257 12.0782 12.0205 12.0719C11.996 12.0376 11.9691 12.0051 11.94 11.9746C11.9347 11.9668 11.9285 11.9597 11.9216 11.9534L11.9046 11.935L11.8947 11.9266L11.8735 11.8927L11.8396 11.8631C11.8276 11.8523 11.8148 11.8424 11.8014 11.8334C11.6451 11.7089 11.459 11.6272 11.2615 11.5964L11.2134 11.5893H11.1795H11.1413H11.0692C11.0433 11.5879 11.0174 11.5879 10.9915 11.5893H10.966H10.9406H10.8954C10.872 11.5921 10.8489 11.5963 10.8261 11.602L10.7766 11.6133L10.7399 11.6232L10.6989 11.6359L10.6607 11.6486L10.6141 11.6669L10.583 11.681L10.5448 11.6994L10.5081 11.7177C10.484 11.7304 10.4586 11.746 10.4346 11.7615L10.371 11.8038L10.3455 11.8236C10.3257 11.8377 10.3088 11.8532 10.2918 11.8673L10.2706 11.8857L10.2522 11.904L10.2338 11.9209L10.207 11.9492L10.1561 12.007L10.1349 12.0352C10.126 12.0454 10.118 12.0562 10.1109 12.0677C10.0964 12.0866 10.0832 12.1064 10.0713 12.127C10.0636 12.1376 10.0569 12.1489 10.0515 12.1608C10.0445 12.1711 10.0383 12.182 10.0331 12.1933L10.0204 12.2187V12.2271C10.0151 12.2355 10.0108 12.2445 10.0077 12.254L9.99496 12.2794V12.2963C9.99496 12.3146 9.98082 12.333 9.97517 12.3499C9.97055 12.3609 9.96677 12.3722 9.96386 12.3838V12.4035C9.96386 12.412 9.95679 12.4261 9.95397 12.4374C9.94854 12.4554 9.94429 12.4738 9.94125 12.4924C9.94075 12.5023 9.94075 12.5122 9.94125 12.5221C9.94125 12.5319 9.94125 12.5446 9.94125 12.5559C9.94068 12.5672 9.94068 12.5785 9.94125 12.5898V12.6208V12.6519V12.69V12.7196C9.93983 12.7441 9.93983 12.7686 9.94125 12.793C9.94125 12.8198 9.94125 12.8452 9.94125 12.872V12.9087C9.94125 12.9383 9.94973 12.9666 9.95538 12.992C9.95768 13.0058 9.96099 13.0195 9.96528 13.0329C9.96528 13.047 9.96528 13.0611 9.97517 13.0738C9.98506 13.0865 9.98365 13.0992 9.98789 13.1147L10.002 13.1528C10.002 13.1669 10.0119 13.1796 10.0176 13.1937C10.03 13.2251 10.0442 13.2557 10.06 13.2855C10.06 13.2855 10.0685 13.3024 10.0727 13.3109C10.0769 13.3193 10.0996 13.3588 10.1151 13.3828C11.8819 16.1534 14.2487 18.4931 17.0413 20.2295C17.0971 20.112 17.1275 19.9841 17.1304 19.8541C14.4125 18.1638 12.1047 15.8917 10.3738 13.2022C10.3625 13.1853 10.3526 13.1683 10.3427 13.15V13.1359C10.3314 13.1133 10.3215 13.0921 10.3116 13.0696L10.3017 13.0442L10.2918 13.0159L10.2762 12.9821C10.2762 12.9736 10.2762 12.9651 10.2762 12.9553C10.2757 12.9463 10.2757 12.9374 10.2762 12.9285C10.2718 12.9089 10.2685 12.8891 10.2664 12.8692V12.8424C10.2664 12.8254 10.2664 12.8057 10.2664 12.7888C10.2664 12.7718 10.2664 12.7535 10.2664 12.7366V12.6999V12.6815V12.6561V12.635V12.6096V12.5898C10.2688 12.5769 10.2721 12.5642 10.2762 12.5517C10.2762 12.5517 10.2762 12.5376 10.2762 12.5277V12.5136V12.491C10.2762 12.4783 10.2861 12.4656 10.2918 12.4543V12.4388V12.4247C10.2942 12.4173 10.2976 12.4102 10.3017 12.4035L10.3144 12.3781L10.3229 12.3626V12.3541C10.3234 12.3499 10.3234 12.3457 10.3229 12.3414L10.3568 12.2921C10.3607 12.2854 10.3655 12.2792 10.371 12.2737L10.3851 12.254L10.419 12.2144L10.4374 12.1975L10.4727 12.1622L10.4826 12.1538L10.5208 12.1227L10.5378 12.11C10.5526 12.0987 10.5682 12.0883 10.5844 12.079C10.5999 12.0677 10.6169 12.0592 10.6325 12.0493L10.6593 12.0352L10.6862 12.0239L10.7074 12.0141L10.7385 12.0014L10.7667 11.9915H10.7908H10.819L10.8516 11.983L10.8996 11.9746H10.9378H11.0933H11.1244H11.154C11.2914 11.9969 11.4207 12.0537 11.53 12.1397L11.5908 12.1354L11.6163 12.1566L11.6361 12.1763L11.6474 12.1876L11.6558 12.1975V12.206C11.6827 12.228 11.7081 12.2515 11.7322 12.2765L11.7407 12.2892L11.7619 12.3217C13.3588 14.8338 15.5007 16.9557 18.0294 18.5305C18.1178 18.4604 18.2013 18.3845 18.2796 18.3033L18.3107 18.2765C15.7893 16.7285 13.6534 14.6285 12.0643 12.1354Z" fill="#BDBCBC"/>
<path d="M16.2936 9.45435C15.6661 8.46734 14.7711 7.67813 13.7125 7.17826C12.654 6.67839 11.4751 6.48833 10.3127 6.63013C9.15031 6.77193 8.05199 7.23978 7.14513 7.97942C6.23826 8.71906 5.56001 9.70018 5.18903 10.809C5.33271 10.7911 5.47459 10.7609 5.61308 10.7187C5.99461 9.70659 6.65116 8.82067 7.50903 8.16037C8.3669 7.50006 9.39215 7.09151 10.4697 6.98057C11.5472 6.86963 12.6344 7.06069 13.6092 7.53231C14.584 8.00393 15.4079 8.73743 15.9883 9.6505C16.8908 11.0696 18.0641 12.2975 19.4415 13.2643L19.5377 13.1627L19.6974 12.9962C18.338 12.0534 17.1809 10.8493 16.2936 9.45435Z" fill="#BDBCBC"/>
<path d="M0.42407 5.58092C1.41161 4.12175 2.69078 2.88224 4.1812 1.94028C4.91415 1.47727 5.69169 1.08869 6.5022 0.780351C6.52486 0.772196 6.54559 0.759466 6.5631 0.742957C6.58061 0.726448 6.59452 0.706513 6.60397 0.684396C6.61396 0.66221 6.61912 0.638164 6.61912 0.613841C6.61912 0.589519 6.61396 0.565472 6.60397 0.543286C6.59114 0.507974 6.56767 0.47749 6.5368 0.456016C6.50593 0.434542 6.46915 0.423129 6.43152 0.423343C6.40939 0.423648 6.38744 0.427458 6.3665 0.434632C5.53458 0.752043 4.73666 1.15198 3.98472 1.62842C2.56079 2.52895 1.32324 3.69396 0.339259 5.06022C0.331707 5.10685 0.328865 5.15413 0.330777 5.20133C0.340672 5.34949 0.472129 5.30434 0.426897 5.55269C0.42407 5.56257 0.42407 5.57104 0.42407 5.58092Z" fill="#BDBCBC"/>
<path d="M15.4484 9.98493C14.9639 9.22276 14.2884 8.60008 13.4889 8.1785C12.6893 7.75692 11.7933 7.55106 10.8896 7.58128C9.98588 7.6115 9.10572 7.87675 8.33621 8.3508C7.5667 8.82485 6.93451 9.49125 6.5022 10.2841C6.58001 10.2855 6.65699 10.3003 6.72977 10.3278L6.87113 10.3786C7.28314 9.6563 7.87532 9.05265 8.59011 8.62632C9.30491 8.2 10.118 7.9655 10.9504 7.94562C11.7828 7.92574 12.6062 8.12114 13.3406 8.51285C14.0751 8.90456 14.6955 9.47925 15.1416 10.1811C16.1238 11.7283 17.3927 13.0741 18.8804 14.1463C18.9118 14.027 18.9593 13.9126 19.0217 13.8062C17.6014 12.767 16.3893 11.4708 15.4484 9.98493Z" fill="#BDBCBC"/>
<path d="M4.59675 8.2507C4.58695 8.20348 4.55905 8.16196 4.51901 8.13499C4.49916 8.12124 4.47675 8.11161 4.45311 8.10665C4.42947 8.10169 4.40507 8.1015 4.38135 8.1061C4.35764 8.11071 4.33509 8.12 4.31503 8.13345C4.29497 8.14689 4.27782 8.16421 4.26457 8.18438C3.69226 9.03285 3.2847 9.98108 3.06308 10.9798C3.0546 11.0221 3.04895 11.0644 3.04047 11.1068C3.05253 11.1107 3.0648 11.114 3.07722 11.1166C3.19108 11.1388 3.30902 11.1255 3.41505 11.0785C3.41505 11.0785 3.41505 11.0673 3.41505 11.0616C3.62674 10.1069 4.01608 9.20031 4.56283 8.38899C4.59203 8.3492 4.60423 8.29946 4.59675 8.2507Z" fill="#BDBCBC"/>
<path d="M17.9856 8.37633C17.3134 7.32329 16.409 6.43748 15.3416 5.78653C14.2742 5.13557 13.0719 4.73667 11.8265 4.62028C10.581 4.50389 9.32547 4.67308 8.15555 5.11494C6.98564 5.5568 5.93231 6.25965 5.07596 7.16984C5.05971 7.18759 5.04715 7.20836 5.03899 7.23098C5.03083 7.25359 5.02724 7.2776 5.02842 7.30161C5.0296 7.32561 5.03554 7.34915 5.04588 7.37086C5.05622 7.39256 5.07077 7.41201 5.08868 7.42808C5.12245 7.45957 5.16686 7.4772 5.21307 7.47746C5.23802 7.47749 5.2627 7.47236 5.28556 7.4624C5.30843 7.45244 5.32899 7.43788 5.34594 7.41961C5.79949 6.9383 6.31192 6.51589 6.87113 6.16232C8.62494 5.05112 10.749 4.68078 12.7763 5.13275C14.8036 5.58473 16.5681 6.822 17.6817 8.57248C18.4973 9.85857 19.5752 10.9587 20.8452 11.8011L20.9215 11.7221C20.9809 11.6586 21.0431 11.5965 21.1053 11.533C19.8521 10.7145 18.7885 9.63828 17.9856 8.37633Z" fill="#BDBCBC"/>
<path d="M5.25549 3.62934C6.82681 2.63465 8.62764 2.05937 10.4855 1.9586C10.5339 1.95747 10.5798 1.93722 10.6132 1.90229C10.6466 1.86735 10.6647 1.82061 10.6636 1.77233C10.6625 1.72405 10.6422 1.6782 10.6072 1.64485C10.5722 1.61151 10.5254 1.59341 10.477 1.59453H10.4601C8.30686 1.71054 6.23292 2.44432 4.4871 3.70783C2.74129 4.97133 1.39776 6.71089 0.617737 8.71777C0.69807 8.77561 0.772413 8.84131 0.839659 8.91391C0.863689 8.94213 0.884892 8.96894 0.904681 8.99716C1.72353 6.77857 3.25288 4.89173 5.25549 3.62934Z" fill="#BDBCBC"/>
<path d="M20.6557 8.5597C20.5059 8.58933 20.3419 8.6359 20.2741 8.56817C20.0338 8.32969 19.809 8.07993 19.5871 7.82593C20.2537 8.77629 21.1009 9.58657 22.0805 10.2107L22.0975 10.1627C22.1286 10.0936 22.1583 9.97645 22.1993 9.85227C21.6362 9.48269 21.1182 9.04891 20.6557 8.5597Z" fill="#BDBCBC"/>
<path d="M18.8323 7.84011C17.8743 6.33255 16.4968 5.1365 14.8684 4.39835C13.24 3.66019 11.4314 3.41196 9.66392 3.68403C7.89642 3.9561 6.2467 4.73667 4.91669 5.9302C3.58667 7.12373 2.63405 8.67845 2.17542 10.4041C2.28284 10.4944 2.38744 10.5805 2.49063 10.6524C2.90633 8.97696 3.80554 7.46016 5.07675 6.29014C6.34796 5.12011 7.93525 4.34833 9.64176 4.07051C11.3483 3.79269 13.0989 4.02105 14.6766 4.72727C16.2544 5.43349 17.5897 6.5865 18.5171 8.04331C19.2915 9.26061 20.3241 10.2934 21.542 11.0687C21.624 10.977 21.7018 10.881 21.7738 10.7865C20.5874 10.0333 19.5828 9.02709 18.8323 7.84011Z" fill="#BDBCBC"/>
<path d="M11.294 23.2521C11.3053 23.6754 11.7958 24.1157 12.1803 23.9717C11.8816 23.7384 11.5861 23.4985 11.294 23.2521Z" fill="#BDBCBC"/>
<path fill-rule="evenodd" clip-rule="evenodd" d="M14.3627 4.7738H16.4929L21.5448 19.0937H19.4217L17.7481 14.2649H14.3627V12.247H16.9071L14.3627 4.7738Z" fill="#174082"/>
<path fill-rule="evenodd" clip-rule="evenodd" d="M21.5449 4.7738H19.1645L21.5449 11.5203V4.7738Z" fill="#169FDB"/>
<path d="M24.0666 13.5564H23.2057V11.8532H24.0666V11.3876C24.0666 10.5832 24.2715 9.99623 24.6546 9.61523C25.0377 9.23423 25.5974 9.04232 26.3353 9.04232C26.8346 9.02986 27.3326 9.09898 27.8096 9.24693V10.9657C27.5095 10.8487 27.1903 10.7884 26.8682 10.7879C26.389 10.7879 26.1162 11.0334 26.1162 11.5795V11.8617H27.7969V13.555H26.1501V19.0922H24.0666V13.5564Z" fill="#169FDB"/>
<path d="M28.9305 11.784H31.0069V13.2643C31.431 12.2539 32.1137 11.5992 33.3435 11.6542V13.816H33.2346C31.8536 13.816 31.0069 14.6472 31.0069 16.3941V19.0935H28.9305V11.784Z" fill="#169FDB"/>
<path d="M34.6821 9.13831H36.8688V10.9727H34.6821V9.13831ZM34.7372 11.7841H36.8137V19.0936H34.7372V11.7841Z" fill="#169FDB"/>
<path d="M38.4123 15.4797V15.4529C38.4123 13.3659 40.011 11.6429 42.2515 11.6429C43.6311 11.6429 44.4919 12.1072 45.1746 12.8706L43.9024 14.2337C43.4388 13.7441 42.9738 13.4294 42.2359 13.4294C41.1984 13.4294 40.4605 14.3438 40.4605 15.4205V15.4487C40.4605 16.5663 41.1843 17.4666 42.3179 17.4666C43.0148 17.4666 43.4939 17.166 43.9986 16.689L45.2142 17.9167C44.5074 18.6942 43.6848 19.253 42.2232 19.253C41.7227 19.2627 41.2254 19.1719 40.7607 18.9861C40.296 18.8003 39.8734 18.5232 39.518 18.1713C39.1626 17.8194 38.8816 17.3998 38.6917 16.9375C38.5018 16.4751 38.4068 15.9794 38.4123 15.4797Z" fill="#169FDB"/>
<path d="M50.4951 9.37256H52.638V19.0936H50.4951V9.37256Z" fill="#706F6F"/>
<path d="M54.7795 9.37256H58.5776C61.6393 9.37256 63.7539 11.4695 63.7539 14.2056V14.2324C63.7539 16.9685 61.6336 19.0936 58.5776 19.0936H54.7795V9.37256ZM58.5776 17.1632C60.3304 17.1632 61.5135 15.9836 61.5135 14.2606V14.2324C61.5135 12.5108 60.3304 11.3029 58.5776 11.3029H56.9224V17.1632H58.5776Z" fill="#706F6F"/>
<path d="M52.1489 22.3067H48.3508H47.2794V21.2371V17.4454H48.3508V21.2371H52.1489V22.3067Z" fill="#706F6F"/>
<path d="M52.1489 6.15942H48.3508H47.2794V7.22904V11.0207H48.3508V7.22904H52.1489V6.15942Z" fill="#706F6F"/>
<path d="M61.1304 22.3067H64.9286H66V21.2371V17.4454H64.9286V21.2371H61.1304V22.3067Z" fill="#706F6F"/>
<path d="M61.1304 6.15942H64.9286H66V7.22904V11.0207H64.9286V7.22904H61.1304V6.15942Z" fill="#706F6F"/>
</g>
<defs>
<clipPath id="clip0_1_259">
<rect width="66" height="24" fill="white"/>
</clipPath>
</defs>
</svg>
